<svg version="1.1" id="Layer_1" xmlns="http://www.w3.org/2000/svg" xmlns:xlink="http://www.w3.org/1999/xlink" x="0px" y="0px"
	 width="100%" viewBox="0 0 1024 448" enable-background="new 0 0 1024 448" xml:space="preserve">
<path fill=" #69369e" opacity="1.000000" stroke="none"
	d="
M413.924988,52.844162
	C433.027069,44.554218 450.678558,34.186043 469.117401,25.398544
	C473.169189,23.467558 477.046539,21.173656 481.063965,19.166428
	C484.250854,17.574158 487.310272,17.712389 490.543091,19.578171
	C516.471863,34.542572 543.663086,47.092113 570.178223,60.938896
	C578.691833,65.384911 587.814148,68.681915 596.718201,72.358734
	C603.588501,75.195755 604.192627,75.898262 604.210144,83.440865
	C604.236023,94.603493 604.143127,105.767532 604.307678,116.927925
	C604.352295,119.953934 603.679199,121.983704 600.665588,123.160759
	C594.009644,125.760391 587.428223,128.539307 581.327332,132.339264
	C578.380676,134.174576 577.051575,131.876801 575.926941,129.811111
	C573.782532,125.872368 571.670715,121.905045 569.783813,117.838921
	C563.968750,105.307770 553.115967,99.519447 540.756714,95.322891
	C523.577454,89.489700 505.890808,86.491989 487.875519,86.595779
	C459.610809,86.758606 432.172089,91.568176 407.407074,106.095490
	C399.884491,110.508286 396.042206,118.463509 394.336151,127.045654
	C393.171143,132.905807 391.140381,134.440552 385.833496,131.914062
	C371.254211,124.973129 355.812561,120.300270 340.847839,114.385857
	C334.218689,111.765862 327.768799,108.634834 321.420746,105.378662
	C316.155823,102.678062 316.087982,99.523941 321.392151,97.060272
	C335.400330,90.553802 349.030426,83.277756 363.239777,77.165520
	C380.341309,69.809196 397.173248,61.825203 413.924988,52.844162
z"/>
<path fill=" #69369e" opacity="1.000000" stroke="none"
	d="
M243.990051,273.120667
	C239.928116,285.293030 241.771591,297.174561 243.479630,309.021210
	C243.909622,312.003693 244.942520,315.077454 248.583069,315.631989
	C251.887375,316.135254 254.688416,315.747894 256.154205,311.779236
	C257.214966,308.907349 268.102112,307.171875 270.326752,309.097687
	C271.502350,310.115387 271.265564,311.521393 271.301697,312.818634
	C271.887665,333.865082 269.781982,354.726990 265.929626,375.350281
	C264.327789,383.925659 262.800812,392.632294 259.404388,400.869263
	C257.132874,406.378113 253.747314,410.829437 250.007156,415.373077
	C238.529953,429.316010 219.168701,420.908600 214.029282,406.161560
	C209.404938,392.892517 207.143951,379.179352 205.729599,365.272827
	C204.688187,355.033051 203.376572,344.817108 202.528687,334.562103
	C200.854233,314.309967 200.187057,294.023132 201.116486,273.701385
	C201.800537,258.744110 201.934692,243.717163 203.979141,228.890793
	C206.531265,210.382614 207.181122,191.477509 214.124557,173.759796
	C215.777161,169.542801 218.017059,165.595993 220.711090,162.044708
	C229.942596,149.875656 246.854233,151.689133 253.918411,165.243942
	C259.531189,176.013809 262.553833,187.443497 264.285980,199.392471
	C265.831970,210.057556 268.082153,220.618927 269.875549,231.250702
	C270.454651,234.683609 270.584656,238.193390 270.895172,241.670227
	C271.411194,247.447876 271.120911,253.293854 272.845764,258.970215
	C273.387512,260.753143 273.583466,262.943359 271.637360,264.879242
	C267.790771,263.815460 263.611420,264.424866 259.521881,263.852112
	C251.069122,262.668304 247.213272,264.828430 243.990051,273.120667
z"/>
<path fill=" #69369e" opacity="1.000000" stroke="none"
	d="
M714.779114,400.045044
	C709.027527,381.627533 707.115234,362.956512 705.853516,344.250519
	C705.138794,333.653839 702.829041,323.153229 703.727661,312.447540
	C703.877747,310.658997 703.441345,308.806854 704.452942,306.606201
	C709.909119,307.242737 715.165039,308.409088 719.538574,311.888855
	C724.075012,315.498230 726.841553,315.110107 728.874268,309.564148
	C733.402222,297.209656 734.323425,284.571289 730.500916,271.848297
	C728.640991,265.657562 724.413208,263.578491 718.371765,265.330139
	C716.455322,265.885803 714.518066,266.589203 712.555420,266.726807
	C705.433838,267.226349 702.278931,265.772675 702.751892,258.224487
	C703.897095,239.948608 707.438782,222.025040 710.076538,203.965561
	C711.835571,191.922623 715.068665,180.303024 719.055237,168.833771
	C723.998962,154.610794 737.743103,151.309753 750.524902,156.764282
	C754.701843,158.546753 756.761597,162.837524 758.124451,166.908615
	C761.022522,175.565613 762.628662,184.561600 764.571289,193.484390
	C767.543945,207.138031 767.687744,221.138657 770.800659,234.760086
	C772.343628,241.511444 771.861450,248.712509 771.919800,255.649597
	C772.069580,273.464905 775.145630,291.200165 773.645935,309.012665
	C772.561523,321.892578 771.547424,334.781006 769.958923,347.636566
	C768.637329,358.331207 767.759338,369.110199 766.183105,379.785187
	C764.367737,392.079437 760.200745,403.777100 753.589661,414.147278
	C748.759399,421.724060 732.778503,426.742737 723.949890,416.351562
	C719.888489,411.571289 716.910889,406.303894 714.779114,400.045044
z"/>
<path fill=" #69369e" opacity="1.000000" stroke="none"
	d="
M406.965149,124.046066
	C410.680176,112.894333 419.545532,108.065186 429.271576,104.500450
	C443.059998,99.446770 457.486450,96.457794 471.972137,95.040100
	C484.640411,93.800293 497.517578,94.305527 510.313416,96.181648
	C524.127258,98.207031 536.931763,103.079140 549.655701,108.305138
	C558.112793,111.778633 561.611328,119.595520 564.283325,127.532455
	C568.943726,141.375397 573.141968,155.373978 577.528381,169.309036
	C578.936707,173.782928 577.803284,175.240463 573.068481,174.638474
	C566.639526,173.821030 560.263550,172.678162 553.809021,171.944565
	C544.338501,170.868149 535.191345,172.210495 526.126587,174.418427
	C514.341187,177.289062 502.701721,180.678864 491.464325,185.360626
	C484.751770,188.157242 478.426910,185.448212 472.147705,183.343002
	C451.685638,176.482773 430.971375,171.222961 409.097015,173.383118
	C405.627289,173.725769 402.199921,174.478394 398.736633,174.910339
	C394.837830,175.396576 393.065094,173.652130 393.733704,169.701202
	C396.373993,154.099487 400.700165,138.980331 406.965149,124.046066
z"/>
<path fill=" #69369e" opacity="1.000000" stroke="none"
	d="
M719.477417,301.396301
	C708.206421,301.246155 697.998474,297.141418 687.278748,295.814758
	C664.222107,292.961334 641.392273,288.618195 618.123047,287.041016
	C595.893738,285.534363 573.715271,283.367767 551.421326,282.717773
	C522.985840,281.888641 494.576965,279.699860 466.102722,281.983215
	C458.814270,282.567688 451.447845,282.344116 444.120422,282.249298
	C417.275085,281.901886 390.585327,284.752747 363.847198,286.359863
	C345.143494,287.484039 326.492096,289.955750 307.913239,292.520416
	C294.449493,294.378906 281.160339,297.474792 267.761108,299.836029
	C255.824600,301.939514 254.647964,300.972992 254.777832,288.898712
	C254.946030,273.260712 252.397980,277.246613 267.456543,274.575928
	C281.661957,272.056549 295.804108,269.074738 310.087646,267.131012
	C324.391541,265.184509 338.597443,262.492157 353.073578,261.667419
	C369.006866,260.759674 384.892242,259.040955 400.815491,257.915619
	C409.613800,257.293823 418.461761,257.379913 427.261566,256.773376
	C459.016937,254.584595 490.836151,253.720367 522.602783,255.031006
	C545.870239,255.990982 569.165588,256.514526 592.407715,257.900116
	C609.318298,258.908234 626.196716,260.791962 643.014893,262.884644
	C652.359619,264.047424 661.485535,266.980896 670.831421,268.119141
	C679.581726,269.184814 688.337952,270.155243 697.008179,271.731781
	C703.691162,272.946930 710.318970,274.464844 716.975403,275.827972
	C718.710022,276.183228 720.424927,276.926910 720.803162,278.649719
	C722.470215,286.242767 723.917969,293.884766 719.477417,301.396301
z"/>
<path fill=" #69369e" opacity="1.000000" stroke="none"
	d="
M671.235107,388.184082
	C672.760803,388.642609 673.871399,388.996796 674.970459,389.383667
	C678.633179,390.673035 681.939880,392.941315 682.083374,396.871857
	C682.243896,401.268280 678.729736,403.869720 674.985291,405.632233
	C671.470764,407.286469 667.677185,407.973480 663.805420,407.821808
	C637.662964,406.797882 611.530090,408.709167 585.383362,407.975067
	C567.907715,407.484406 550.407349,407.786591 532.939453,407.147797
	C526.456238,406.910736 521.604431,408.725922 517.768799,413.725189
	C504.168182,431.452087 470.755676,431.243073 455.728119,419.887909
	C453.230316,418.000519 450.863831,415.806580 448.894440,413.382416
	C445.566925,409.286560 441.558350,407.800385 436.285156,407.824097
	C395.653534,408.006805 355.020905,407.978027 314.388611,407.992676
	C309.899231,407.994293 305.372253,408.176300 301.089142,406.387482
	C300.322601,406.067352 299.461273,405.920532 298.764740,405.495422
	C295.157501,403.293732 291.009460,400.814728 291.883026,396.073517
	C292.809296,391.045898 297.486145,389.916718 302.053101,389.808807
	C323.342407,389.305756 344.574554,387.609833 365.910736,387.749054
	C386.161224,387.881256 406.423126,386.580994 426.676331,385.813751
	C434.908051,385.501862 442.844940,387.700653 450.950439,388.470917
	C455.272675,388.881683 458.820221,391.600464 461.368439,395.519653
	C470.282440,409.229645 481.302246,409.256989 497.694489,406.474640
	C501.414642,405.843170 505.131927,403.354401 506.739166,399.848633
	C511.284973,389.933105 520.406677,388.916809 529.247681,387.963348
	C550.242981,385.699127 571.237244,385.399170 592.419556,386.538452
	C616.328064,387.824371 640.338318,388.488495 664.327515,387.928406
	C666.487366,387.877991 668.652161,388.034363 671.235107,388.184082
z"/>
<path fill=" #69369e" opacity="1.000000" stroke="none"
	d="
M199.346191,197.362488
	C195.060532,218.249481 191.966995,238.837814 191.010056,259.821777
	C190.457367,271.941071 190.052322,284.043701 189.869919,296.168823
	C189.503433,320.529480 192.551346,344.576721 195.976044,368.619781
	C196.776474,374.239380 197.409653,379.809174 199.520905,385.104340
	C200.693146,388.044403 199.636185,390.192322 197.386627,392.137482
	C191.598358,397.142426 185.030807,396.655334 178.525909,394.472351
	C169.875183,391.569305 164.251633,385.349213 161.904495,376.585876
	C156.812714,357.575165 155.545013,337.996399 153.789291,318.504028
	C152.127457,300.054108 151.828659,281.509796 153.942032,263.160889
	C156.059189,244.779037 156.905151,226.104599 162.666000,208.284088
	C164.045792,204.015823 166.135574,199.985565 168.750702,196.340393
	C171.281387,192.812973 174.746521,190.750595 179.320389,190.655655
	C184.140381,190.555573 188.957367,189.857407 193.768814,189.922913
	C198.735138,189.990540 199.891357,191.717468 199.346191,197.362488
z"/>
<path fill=" #69369e" opacity="1.000000" stroke="none"
	d="
M816.844910,334.770142
	C815.971985,343.630066 815.150085,352.039886 813.717834,360.411041
	C812.132202,369.678162 808.786499,378.357880 805.373291,386.964996
	C802.923462,393.143036 796.107849,393.399933 790.687012,394.913239
	C787.589355,395.777985 784.048157,395.371429 780.742737,395.099274
	C775.870361,394.698120 773.540161,391.125916 774.552307,386.382965
	C778.336243,368.651276 780.338135,350.678802 781.877502,332.634949
	C783.205322,317.070374 785.798767,301.552460 784.542603,285.881500
	C783.001465,266.655060 782.173096,247.349304 779.350281,228.251129
	C778.018982,219.244003 775.782593,210.371826 773.998413,201.430099
	C772.764832,195.247574 775.832825,190.986313 782.104736,190.299911
	C784.914429,189.992401 787.759094,189.944931 790.589844,189.898621
	C802.583740,189.702454 806.964233,192.933212 810.326782,204.588303
	C813.473999,215.496918 814.453064,226.791672 816.062561,237.969849
	C818.167969,252.592606 819.910645,267.336090 819.833069,282.053314
	C819.741150,299.487122 819.151550,316.983032 816.844910,334.770142
z"/>
<path fill=" #69369e" opacity="1.000000" stroke="none"
	d="
M860.108154,303.272827
	C860.168030,314.722687 860.707275,325.733337 857.963867,336.523865
	C855.945618,344.462067 851.490234,351.062592 846.283630,357.166870
	C843.479980,360.453827 839.391113,360.097443 835.555603,359.938263
	C824.565674,359.482361 824.370728,359.446533 824.742615,348.557190
	C825.185364,335.591431 826.735840,322.704071 827.991455,309.794373
	C829.691833,292.311951 828.619202,274.883209 826.402893,257.479462
	C825.375183,249.409409 824.639160,241.290329 824.514282,233.118683
	C824.446533,228.686615 826.653503,227.352219 830.490845,226.909424
	C847.807739,224.911209 857.851807,233.950195 859.487061,251.492859
	C860.810181,265.687958 859.352234,279.743286 859.354980,293.860626
	C859.355591,296.839996 859.822571,299.819305 860.108154,303.272827
z"/>
<path fill=" #69369e" opacity="1.000000" stroke="none"
	d="
M143.049713,291.000305
	C142.125305,308.779022 145.912033,325.531952 148.714798,342.396423
	C149.041199,344.360291 149.311508,346.348083 149.398117,348.333984
	C149.550781,351.834991 152.001663,356.037781 148.259277,358.594513
	C143.852905,361.604828 138.660599,361.724823 133.358276,360.571411
	C122.394119,358.186401 118.372864,350.221191 117.109245,340.357544
	C113.778709,314.360046 113.354721,288.218018 115.084717,262.118896
	C115.649490,253.598541 116.393066,244.871460 119.069817,236.541183
	C121.176750,229.984192 125.180992,226.035431 132.289993,225.642227
	C135.771530,225.449677 139.220016,224.589066 142.737640,225.172226
	C147.943802,226.035324 149.883789,228.432571 149.406082,233.699265
	C148.715088,241.317200 145.849945,248.508743 145.087753,256.146942
	C143.947083,267.578003 142.777313,278.992065 143.049713,291.000305
z"/>
<path fill=" #69369e" opacity="1.000000" stroke="none"
	d="
M441.330078,335.624786
	C451.738281,339.182831 461.947815,342.211334 470.755096,348.473999
	C477.341492,353.157501 481.508392,359.763092 484.978424,366.777008
	C486.215851,369.278229 486.957977,372.463562 484.554291,375.870514
	C476.570251,370.044891 467.093536,367.104736 459.189026,361.374756
	C449.463654,354.324768 437.972626,353.431366 426.772827,351.167389
	C415.058563,348.799347 403.265747,348.925323 391.512054,349.457520
	C381.081268,349.929840 370.707306,351.620453 360.302948,352.723236
	C347.738190,354.054993 335.147827,355.082245 322.501312,354.594452
	C319.436615,354.476288 315.957062,354.444519 315.554321,349.886169
	C315.043579,344.105194 317.001678,339.740356 321.372894,338.467010
	C324.703857,337.496735 328.124512,336.568451 331.657471,336.706055
	C344.547546,337.207977 357.002838,334.094421 369.598602,332.183441
	C391.772552,328.819305 413.890564,327.450928 435.846283,333.611847
	C437.588806,334.100830 439.246704,334.891418 441.330078,335.624786
z"/>
<path fill=" #69369e" opacity="1.000000" stroke="none"
	d="
M569.036743,328.725281
	C588.149536,329.332947 606.526062,331.764160 624.832764,335.254822
	C631.164307,336.462097 637.605225,337.277985 643.965271,338.534058
	C646.624817,339.059296 649.074585,340.033630 651.525513,340.960236
	C654.002319,341.896606 656.453064,343.483490 656.215698,346.710602
	C655.973389,350.004822 654.139160,352.316711 650.912598,353.242249
	C644.355530,355.123108 637.697327,354.417999 631.066223,353.777649
	C612.692017,352.003204 594.357178,349.532745 575.942078,348.545868
	C555.441467,347.447174 535.796387,352.049683 516.823242,360.007202
	C507.119354,364.077118 498.455444,369.274078 491.433685,377.122559
	C490.647552,378.001251 489.812836,378.949188 488.483734,378.570984
	C486.898224,378.119904 486.873108,376.702087 486.673340,375.356995
	C486.083801,371.387054 487.967529,368.506409 490.196747,365.405792
	C497.928467,354.651703 507.332855,345.854553 519.310913,340.161713
	C529.265320,335.430664 539.925171,332.649261 550.755737,330.804321
	C556.624634,329.804504 562.461975,328.065247 569.036743,328.725281
z"/>
<path fill=" #69369e" opacity="1.000000" stroke="none"
	d="
M522.072449,364.841736
	C533.479370,361.008087 544.842285,358.968842 556.387207,357.518524
	C562.479553,356.753143 568.478027,355.266357 574.673035,355.803284
	C588.081421,356.965454 601.484192,358.191559 614.889893,359.384796
	C620.026123,359.841980 625.158752,360.570465 630.302185,360.662659
	C638.813599,360.815216 646.982910,363.322998 655.449707,363.845947
	C661.218750,364.202209 665.967163,375.492584 662.618896,380.018707
	C661.305359,381.794250 659.319885,381.462036 657.550842,381.335510
	C646.434937,380.540344 635.272400,380.081970 624.225281,378.707672
	C600.403137,375.744110 576.498474,374.496521 552.560608,375.555115
	C536.479675,376.266296 521.238098,381.091644 506.902161,388.531769
	C506.015106,388.992126 505.124634,389.447296 504.252441,389.934723
	C502.330811,391.008636 500.581604,391.237488 498.837585,389.443695
	C497.041351,387.596161 496.052216,385.604309 497.324677,383.173676
	C498.876068,380.210266 500.729187,377.466461 503.675018,375.610992
	C509.582275,371.890076 515.361450,367.957336 522.072449,364.841736
z"/>
<path fill=" #69369e" opacity="1.000000" stroke="none"
	d="
M428.686890,358.882324
	C444.223755,361.053986 457.543488,367.573059 470.320557,375.485657
	C472.462555,376.812164 474.608215,378.134338 476.117249,380.134949
	C477.749756,382.299225 480.293365,384.597382 478.553009,387.557983
	C476.641266,390.810181 471.200867,391.878052 467.872162,389.828979
	C455.062775,381.943695 440.935486,377.866760 426.271301,375.580109
	C410.042206,373.049500 393.767914,374.916931 377.495117,375.622345
	C363.545807,376.227051 349.777100,378.544800 335.852173,379.305054
	C329.892731,379.630402 323.989716,380.941742 318.030182,381.326172
	C311.816101,381.727051 310.582886,380.107788 311.522156,374.082642
	C313.004486,364.574036 313.785370,363.749878 323.411041,362.903259
	C348.547028,360.692444 373.647064,357.990601 398.884308,357.107971
	C408.722168,356.763885 418.488495,357.820679 428.686890,358.882324
z"/>
<path fill=" #69369e" opacity="1.000000" stroke="none"
	d="
M603.795898,209.889618
	C602.259399,206.964066 601.900085,204.231064 602.132141,201.331390
	C602.913391,191.570389 602.974792,181.748138 604.662659,172.065018
	C604.690979,171.902435 604.626282,171.708817 604.690857,171.569473
	C608.013062,164.402161 606.187988,157.740707 603.331299,150.846695
	C601.542908,146.530945 604.652283,143.392014 611.515869,141.430267
	C612.842957,137.132065 610.610291,132.993591 610.700134,128.690842
	C610.998413,114.404793 611.839722,100.117073 610.905823,85.819466
	C610.789124,84.032875 611.103882,82.150864 611.576660,80.410332
	C612.144836,78.319016 613.501282,77.417458 615.745117,78.548035
	C622.883545,82.144890 623.837219,80.690102 623.418274,89.647903
	C622.687561,105.271950 623.040405,120.912987 623.337952,136.548035
	C623.377441,138.623825 623.743958,140.370438 625.173645,142.031723
	C629.907898,147.532669 630.469543,154.258865 626.642761,160.307693
	C625.362549,162.331299 625.213135,164.155319 625.728394,166.425476
	C628.709656,179.559753 629.737122,192.963287 631.124878,206.322464
	C631.659546,211.468567 628.566650,212.983292 624.605835,214.081238
	C617.101562,216.161469 609.848999,216.970978 603.795898,209.889618
z"/>
<path fill=" #69369e" opacity="1.000000" stroke="none"
	d="
M867.810303,296.995758
	C867.871399,292.517151 867.892517,288.533630 868.004883,284.552673
	C868.093445,281.411072 869.534851,279.683411 872.931824,279.669647
	C876.741028,279.654175 880.548035,279.211029 884.357605,279.184448
	C890.068298,279.144592 892.287720,283.512634 894.167480,287.766449
	C896.029968,291.981384 895.775146,296.595428 894.839844,301.003906
	C893.096924,309.218475 888.207214,312.976379 879.662354,313.114685
	C867.734741,313.307709 867.691101,313.266083 867.756653,301.477661
	C867.764038,300.149017 867.791504,298.820526 867.810303,296.995758
z"/>
<path fill=" #69369e" opacity="1.000000" stroke="none"
	d="
M89.752014,312.552490
	C82.112129,309.993073 79.092819,305.704193 78.733109,297.445648
	C78.562737,293.533936 79.657104,289.874207 81.028465,286.311890
	C81.743195,284.455261 82.959541,282.487549 85.009605,282.122131
	C91.228615,281.013672 97.540916,280.707764 103.849434,281.069946
	C105.987442,281.192688 106.261635,283.067932 106.244865,284.809998
	C106.168121,292.780609 106.048599,300.750793 105.968140,308.721375
	C105.927734,312.723114 103.806389,314.554077 99.966049,314.182892
	C96.674332,313.864777 93.417877,313.181671 89.752014,312.552490
z"/>
<path fill=" #69369e" opacity="1.000000" stroke="none"
	d="
M643.307007,109.541641
	C637.044128,110.902367 632.043213,114.469543 625.499390,116.441574
	C624.191711,106.017159 623.966248,95.860878 625.501953,84.474625
	C635.725586,91.004829 646.975342,93.603012 656.456543,101.059647
	C651.761108,104.458557 648.312317,107.812248 643.307007,109.541641
z"/>
<path fill=" #69369e" opacity="1.000000" stroke="none"
	d="
M338.345215,185.660431
	C341.854706,187.991302 343.331116,191.801880 345.721466,194.889374
	C347.228943,196.836533 342.504120,202.543640 339.345520,203.173645
	C336.265594,203.787933 330.459564,200.545517 330.130463,197.885010
	C329.856079,195.666748 331.510101,194.122742 332.877502,192.872284
	C335.116058,190.825150 336.766724,188.486847 338.345215,185.660431
z"/>
</svg>
